<svg xmlns="http://www.w3.org/2000/svg" width="98.850" height="54.764" viewBox="0 0 98.850 54.764" fill="none">
  <path d="M 78.185 32.276 L 92.16 32.276 C 94.226 32.276 96.213 31.479 97.708 30.053 C 99.231 28.598 99.231 26.166 97.708 24.712 C 96.213 23.285 94.226 22.489 92.159 22.489 L 78.185 22.489 C 77.683 22.489 77.213 22.24 76.932 21.824 L 62.582 0.664 C 62.301 0.249 61.831 0 61.329 0 L 57.7 0 C 57.219 0 56.86 0.442 56.959 0.913 L 61.302 21.576 C 61.4 22.046 61.041 22.489 60.561 22.489 L 0 22.489 L 0 32.276 L 60.561 32.276 C 61.041 32.276 61.4 32.718 61.302 33.188 L 56.959 53.851 C 56.86 54.322 57.219 54.764 57.7 54.764 L 61.329 54.764 C 61.831 54.764 62.301 54.515 62.582 54.1 L 76.932 32.94 C 77.213 32.524 77.683 32.276 78.185 32.276 Z" fill="currentColor" fill-rule="nonzero"></path>
</svg>