<svg preserveAspectRatio="none" width="100%" height="100%" overflow="visible" style="display: block;" viewBox="0 0 164 21.4922" fill="none" xmlns="http://www.w3.org/2000/svg">
<g id="Group 1">
<path id="Vector" d="M164 2.19807C164 3.35816 163.084 4.27402 161.924 4.27402C160.764 4.27402 159.848 3.2971 159.848 2.19807C159.848 1.09903 160.764 0.0610588 161.924 0.0610588C163.084 0.0610588 164 1.03798 164 2.19807ZM160.337 2.19807C160.337 3.11393 161.069 3.84661 161.985 3.84661C162.901 3.84661 163.634 3.11393 163.634 2.19807C163.634 1.28221 162.901 0.549517 161.985 0.549517C161.069 0.549517 160.337 1.28221 160.337 2.19807ZM161.13 1.09903H161.985C162.412 1.09903 162.84 1.22115 162.84 1.70961C162.84 2.19807 162.596 2.25912 162.29 2.32018L162.901 3.23604H162.351L161.741 2.32018H161.558V3.23604H161.069V1.09903H161.13ZM161.619 1.46538V1.95384H161.985C162.168 1.95384 162.351 1.95384 162.351 1.70961C162.351 1.46538 162.229 1.46538 161.985 1.46538H161.619Z" fill="white"/>
<g id="Group">
<path id="Vector_2" d="M111.674 15.3254C111.674 17.5845 108.56 18.3172 108.255 18.3172C107.888 18.3172 104.774 17.5235 104.774 15.3254V6.47208H101.66V15.3254C101.66 19.8436 106.85 21.4311 108.194 21.4311C109.537 21.4311 114.727 19.9047 114.727 15.3254V6.47208H111.613V15.3254H111.674Z" fill="white"/>
<path id="Vector_3" d="M154.902 0.0610576V8.18168C153.742 6.83842 152.094 6.10573 150.201 6.10573C146.171 6.10573 143.118 9.40283 143.118 13.7379C143.118 18.073 146.171 21.3701 150.201 21.3701C154.231 21.3701 153.742 20.6374 154.902 19.2331V21.0037H157.955V0H154.902V0.0610576ZM150.506 18.5614C148.003 18.5614 146.11 16.4855 146.11 13.799C146.11 11.1124 148.003 9.09754 150.506 9.09754C153.01 9.09754 154.902 11.1124 154.902 13.799C154.902 16.4855 153.01 18.5614 150.506 18.5614Z" fill="white"/>
<path id="Vector_4" d="M128.526 8.18168C127.366 6.83842 125.717 6.10573 123.824 6.10573C119.794 6.10573 116.742 9.40283 116.742 13.7379C116.742 18.073 119.794 21.3701 123.824 21.3701C127.854 21.3701 127.366 20.6374 128.526 19.2331V21.0037H131.579V6.41102H128.526V8.12063V8.18168ZM124.13 18.5614C121.626 18.5614 119.733 16.4855 119.733 13.799C119.733 11.1124 121.626 9.09754 124.13 9.09754C126.633 9.09754 128.526 11.1124 128.526 13.799C128.526 16.4855 126.633 18.5614 124.13 18.5614Z" fill="white"/>
<path id="Vector_5" d="M137.257 7.75428V6.47208H134.204V21.0648H137.257V13.2494C137.257 10.0134 139.333 8.48697 141.836 9.52494L143.057 6.77736C143.057 6.77736 142.08 6.16679 140.554 6.16679C139.028 6.16679 137.929 6.96054 137.257 7.75428Z" fill="white"/>
<path id="Vector_6" d="M92.4408 4.45719C94.3947 4.45719 96.0432 5.12882 97.4475 6.34997L99.5235 3.96873C97.6918 2.25913 95.4326 1.40432 92.4408 1.40432C87.0067 1.40432 82.5495 5.92256 82.5495 11.4788C82.5495 17.035 86.8846 21.4922 92.5019 21.4922C98.1192 21.4922 97.7528 20.8816 99.5235 19.5384V10.5019H92.2577V13.4937H96.4096V17.6456C95.2495 18.1951 94.0283 18.4393 92.6851 18.4393C88.8384 18.4393 85.8466 15.3865 85.8466 11.4788C85.8466 7.57111 88.7774 4.51825 92.4408 4.51825V4.45719Z" fill="white"/>
</g>
<g id="Group_2">
<path id="Vector_7" d="M15.1422 0.79375H0V3.78556H5.98362V21.0648H9.09754V3.78556H15.1422V0.79375Z" fill="white"/>
<path id="Vector_8" d="M35.2912 8.18169C34.1311 6.83843 32.4825 6.10574 30.5897 6.10574C26.56 6.10574 23.5071 9.40284 23.5071 13.7379C23.5071 18.073 26.56 21.3701 30.5897 21.3701C34.6195 21.3701 34.1311 20.6374 35.2912 19.2331V21.0037H38.344V6.41103H35.2912V8.12063V8.18169ZM30.895 18.5614C28.3917 18.5614 26.4989 16.4855 26.4989 13.799C26.4989 11.1124 28.3917 9.09755 30.895 9.09755C33.3984 9.09755 35.2912 11.1124 35.2912 13.799C35.2912 16.4855 33.3984 18.5614 30.895 18.5614Z" fill="white"/>
<path id="Vector_9" d="M71.8645 0.0610613V21.0648H73.3909H74.9173V0.0610613H73.3909H71.8645Z" fill="white"/>
<path id="Vector_10" d="M47.6247 18.0119C45.8541 14.898 44.2666 10.5629 43.3507 6.47208H40.2978C40.2978 6.47208 41.6411 14.0432 45.793 21.0648H49.5175C53.6694 14.0432 55.0127 6.47208 55.0127 6.47208H51.9598C51.105 10.5629 49.4564 14.8369 47.6858 18.0119H47.6247Z" fill="white"/>
<path id="Vector_11" d="M17.4624 7.75429V6.47208H14.4095V21.0648H17.4624V13.2494C17.4624 10.0134 19.5383 8.48697 22.0417 9.52495L23.2628 6.77737C23.2628 6.77737 22.2859 6.1668 20.7595 6.1668C19.233 6.1668 18.134 6.96054 17.4624 7.75429Z" fill="white"/>
<path id="Vector_12" d="M62.5838 6.1668C58.554 6.1668 55.379 9.52495 55.379 13.799C55.379 18.073 58.6761 21.4311 63.0112 21.4311C67.3463 21.4311 67.4684 20.5153 68.7506 19.111L67.102 16.9739C66.1251 18.073 64.6597 18.6836 63.1333 18.6836C60.7521 18.6836 58.9204 17.0961 58.554 14.7148H69.7275C69.7886 14.4095 69.8496 13.6768 69.8496 13.5547C69.8496 9.40283 66.6746 6.1668 62.6449 6.1668H62.5838ZM58.6761 12.1504C59.2256 10.1355 60.691 8.85332 62.6449 8.85332C64.5987 8.85332 66.003 10.0134 66.4915 12.1504H58.6761Z" fill="white"/>
</g>
</g>
</svg>
